<?xml version="1.0" standalone="no"?>
<!DOCTYPE svg PUBLIC "-//W3C//DTD SVG 20010904//EN"
 "http://www.w3.org/TR/2001/REC-SVG-20010904/DTD/svg10.dtd">
<svg version="1.0" xmlns="http://www.w3.org/2000/svg"
 width="80.000000pt" height="80.000000pt" viewBox="0 0 80.000000 80.000000"
 preserveAspectRatio="xMidYMid meet">

<g transform="translate(0.000000,80.000000) scale(0.100000,-0.100000)"
fill="#000000" stroke="none">
<path d="M0 400 l0 -400 400 0 400 0 0 400 0 400 -400 0 -400 0 0 -400z m302
103 c15 -13 18 -32 18 -115 l0 -98 -30 0 c-29 0 -30 1 -30 50 0 38 -4 50 -15
50 -11 0 -15 -12 -15 -50 0 -49 -1 -50 -30 -50 l-30 0 0 99 c0 77 4 103 16
115 21 21 92 21 116 -1z m188 -3 c0 -16 -7 -20 -35 -20 -32 0 -35 -2 -35 -30
0 -25 4 -30 25 -30 16 0 25 -6 25 -15 0 -9 -9 -15 -25 -15 -23 0 -25 -3 -25
-50 0 -49 -1 -50 -30 -50 l-30 0 0 115 0 115 65 0 c58 0 65 -2 65 -20z m170 0
c0 -16 -7 -20 -35 -20 -32 0 -35 -2 -35 -29 0 -23 5 -30 22 -33 32 -5 35 -28
4 -28 -24 0 -26 -3 -26 -50 0 -49 -1 -50 -30 -50 l-30 0 0 115 0 115 65 0 c58
0 65 -2 65 -20z"/>
<path d="M230 450 c0 -20 5 -30 15 -30 10 0 15 10 15 30 0 20 -5 30 -15 30
-10 0 -15 -10 -15 -30z"/>
</g>
</svg>
